<svg xmlns="http://www.w3.org/2000/svg" viewBox="0 0 400 300" width="406" height="306" class="illustration styles_illustrationTablet__1DWOa"><g id="_444_wearing_a_mask_flatline" data-name="#444_wearing_a_mask_flatline"><path d="M188,123.37s-44.62,26.12-58.41,38.46-17.41,78.36-17.41,104.11H287.79s-3.74-79.18-12.38-96.21C263.85,147,221.93,128.09,211,125.18S188,123.37,188,123.37Z" fill="#68e1fd"></path><path d="M287.79,266.44H112.21a.5.5,0,0,1-.5-.5c0-23,3.23-91.65,17.58-104.49,13.66-12.22,58-38.25,58.49-38.51a.48.48,0,0,1,.2-.07c.12,0,12.19-1.06,23.11,1.83,5,1.32,18.13,6.53,32.13,14.88,11.41,6.8,26.33,17.52,32.63,29.93,8.59,16.93,12.29,93.17,12.44,96.41a.47.47,0,0,1-.14.37A.48.48,0,0,1,287.79,266.44Zm-175.08-1H287.27c-.35-6.9-4.18-79.47-12.31-95.49-11.19-22.06-52.52-41.22-64.12-44.29-10.2-2.7-21.43-1.91-22.66-1.81-2.34,1.37-45,26.45-58.23,38.34-5.84,5.22-10.58,21.37-13.71,46.71A509.21,509.21,0,0,0,112.71,265.45Z" fill="#231f20"></path><path d="M181.55,134.67,200,153.9l16.28-18S193.65,137.22,181.55,134.67Z" fill="#231f20"></path><path d="M200,154.39a.48.48,0,0,1-.36-.15L181.19,135a.48.48,0,0,1-.07-.58.52.52,0,0,1,.54-.25c11.89,2.51,34.33,1.21,34.55,1.2a.5.5,0,0,1,.48.28.49.49,0,0,1-.08.55l-16.28,18a.52.52,0,0,1-.37.16Zm-17-18.94,17,17.72,15.12-16.74C210.44,136.65,193.59,137.29,183,135.45Z" fill="#231f20"></path><path d="M230.08,85.19A51.35,51.35,0,0,0,234,72.07c.14-.87,1.77-10.67-1.11-10.42a22.53,22.53,0,0,0,10.37-3.59,1.5,1.5,0,0,0,.56-.53c.45-.89-.87-1.56-1.85-1.76a16.63,16.63,0,0,1-10.31-6.88c-1.58-2.34-2.72-5.24-5.24-6.52-2.87-1.47-6.54-.25-9.46-1.61-2-.94-3.3-2.92-5-4.32-3.95-3.2-9.86-2.92-14.42-.67-2,1-3.94,2.28-6.09,2-1.48-.2-2.75-1.14-4.17-1.59-4.55-1.46-9,2.24-12.19,5.84-2.36,2.7-2.37,5.1-3.67,8.12-1.06,2.44-3.5,4-4.79,6.42-2.64,5-2,11-.26,16.24.41,1.19,9.94,18.31,6.91,18.13,8.83.54,17.73,1.29,26.64,1.16C207,92,226.3,93.53,230.08,85.19Z" fill="#fff"></path><path d="M207.19,92.65c-1.35,0-2.64,0-3.82,0s-2.48,0-3.43,0c-7.23.11-14.55-.37-21.62-.83l-5.06-.33a.51.51,0,0,1-.48-.54.49.49,0,0,1,.54-.49c.56-.77-1.5-5.77-6.14-14.84-.8-1.57-1.19-2.33-1.29-2.61-1.51-4.45-2.68-10.95.29-16.63a15.22,15.22,0,0,1,2.42-3.19,12,12,0,0,0,2.35-3.2,25.69,25.69,0,0,0,1-2.76,13.7,13.7,0,0,1,2.78-5.5c4.56-5.22,8.85-7.24,12.74-6a13.08,13.08,0,0,1,1.71.72,8,8,0,0,0,2.36.84c1.64.22,3.25-.62,4.81-1.44l1-.5c4.35-2.15,10.66-2.76,15,.73a19.94,19.94,0,0,1,1.82,1.73,11.13,11.13,0,0,0,3.1,2.52,11.29,11.29,0,0,0,4.45.72,11.58,11.58,0,0,1,5,.9c2,1,3.19,3,4.31,4.89.36.61.73,1.22,1.12,1.8a16,16,0,0,0,10,6.66,3.23,3.23,0,0,1,2.21,1.37,1.22,1.22,0,0,1,0,1.13,2,2,0,0,1-.74.73,23,23,0,0,1-9.13,3.5c1.18,2,.59,7.08.11,10.08a52,52,0,0,1-4,13.34C227.59,91.93,216,92.65,207.19,92.65Zm-6.41-1.09,2.6,0c8.07.1,23.09.3,26.23-6.61h0a50.66,50.66,0,0,0,3.91-13c.81-5.06.77-8.72-.09-9.65a.53.53,0,0,0-.46-.18h0a.53.53,0,0,1-.55-.47.52.52,0,0,1,.47-.56h0A22,22,0,0,0,243,57.63a1.28,1.28,0,0,0,.38-.33.22.22,0,0,0,0-.22,2.39,2.39,0,0,0-1.5-.81,17,17,0,0,1-10.64-7.09c-.4-.59-.77-1.22-1.15-1.85-1.1-1.86-2.13-3.61-3.89-4.5a10.73,10.73,0,0,0-4.59-.79,12.05,12.05,0,0,1-4.86-.82,12,12,0,0,1-3.4-2.73,19.2,19.2,0,0,0-1.73-1.65c-3.95-3.2-9.81-2.61-13.86-.61-.33.16-.65.33-1,.5-1.7.89-3.47,1.81-5.42,1.55a8.92,8.92,0,0,1-2.67-.94,12.44,12.44,0,0,0-1.58-.67c-4.32-1.39-8.72,2.33-11.66,5.69a12.7,12.7,0,0,0-2.56,5.13c-.29.9-.58,1.84-1,2.86a13.17,13.17,0,0,1-2.53,3.49,14.25,14.25,0,0,0-2.28,3c-2.8,5.36-1.66,11.57-.22,15.83.07.22.61,1.26,1.23,2.47,4,7.91,6.54,13.34,6.26,15.38l4,.26c7.06.46,14.36.94,21.54.83Z" fill="#231f20"></path><path d="M221.67,87.87c1.87-9.58,18-11.39,16.76-.07-.41,3.89-1.8,7.82-4.63,10.51s-7.3,3.86-10.81,2.14" fill="#fff"></path><path d="M226.62,101.78a8.79,8.79,0,0,1-3.86-.86.53.53,0,0,1-.24-.7.52.52,0,0,1,.69-.23c3.14,1.54,7.34.69,10.23-2,3.13-3,4.16-7.18,4.48-10.19.41-4-1.44-6.64-4.95-7.16-4.29-.65-9.79,2.23-10.8,7.38a.51.51,0,1,1-1-.2c1.12-5.72,7.21-8.92,12-8.2,3.18.47,6.38,2.9,5.81,8.29-.33,3.18-1.43,7.64-4.79,10.83A11.08,11.08,0,0,1,226.62,101.78Z" fill="#231f20"></path><path d="M181.82,86.49c-1.2-9.69-17.11-12.62-16.71-1.23.13,3.9,1.24,7.92,3.89,10.8s7,4.36,10.63,2.89" fill="#fff"></path><path d="M176.58,100a11,11,0,0,1-8-3.63c-3.13-3.41-3.92-7.94-4-11.14-.19-5.41,3.17-7.61,6.38-7.86,4.81-.38,10.64,3.22,11.37,9a.53.53,0,0,1-.45.58.53.53,0,0,1-.58-.45c-.65-5.21-5.93-8.47-10.26-8.11-3.54.28-5.57,2.82-5.43,6.8.11,3,.84,7.3,3.76,10.47,2.69,2.94,6.83,4.08,10.06,2.76a.52.52,0,0,1,.67.28.51.51,0,0,1-.28.67A8.5,8.5,0,0,1,176.58,100Z" fill="#231f20"></path><path d="M181.55,134.67s7.35,3.75,20,4.19,14.72-3,14.72-3l-.3-6.75-.69-15.7-.67-14.67-28.81-1-1.37,11.93-.43,3.87Z" fill="#fff"></path><path d="M203.66,139.41l-2.15,0c-12.59-.44-19.89-4.1-20.19-4.25a.53.53,0,0,1-.28-.52l4.22-36.92a.51.51,0,0,1,.53-.45l28.81,1a.51.51,0,0,1,.5.49l1.66,37.12a.54.54,0,0,1-.08.3C216.59,136.29,214.53,139.41,203.66,139.41Zm-21.55-5c1.54.7,8.53,3.61,19.43,4,10.73.38,13.66-2.09,14.18-2.64l-1.63-36.45-27.86-1Z" fill="#231f20"></path><path d="M184,113.55c2.05,3.58,5.56,6.45,9.18,8.63,6.08,3.65,15.22,7.83,22.79,6.94l-.69-15.7a71.14,71.14,0,0,1-16.62-.46c-4.85-.6-9.84-1.25-14.23-3.28Z" fill="#231f20"></path><path d="M213.79,129.74c-7.77,0-16.28-4.36-20.9-7.14-4.36-2.62-7.5-5.58-9.35-8.8a.52.52,0,0,1-.06-.3l.42-3.87a.51.51,0,0,1,.25-.38.53.53,0,0,1,.46,0c4.45,2.06,9.56,2.68,14.08,3.23a69.71,69.71,0,0,0,16.5.47.51.51,0,0,1,.38.11.46.46,0,0,1,.17.36l.7,15.7a.49.49,0,0,1-.44.51A18,18,0,0,1,213.79,129.74Zm-29.3-16.3c1.77,3,4.77,5.81,8.92,8.31,4.85,2.92,14.1,7.63,22,6.92l-.65-14.7a71.25,71.25,0,0,1-16.2-.52c-4.38-.53-9.32-1.14-13.75-3Z" fill="#231f20"></path><path d="M198.7,116.54l2.58.09a22.09,22.09,0,0,0,22.84-21.31l0-1.12q.21-6.17.38-12.32c.08-2.59,1.35-7.6-1.95-8.86-.67-.26-1.44-.22-2.11-.5a4.91,4.91,0,0,1-2-2.12,12.4,12.4,0,0,0-2.74-3.32c-2.53-2-4.51-.12-7.13-.78-4.44-1.12-8.92-4.42-13.67-3.62a8.75,8.75,0,0,1-2.77.32,5.48,5.48,0,0,1-2-.81,34.08,34.08,0,0,1-4.07-2.79,7.18,7.18,0,0,1-2.54,5.6,3,3,0,0,0-1,1c-.3.72.1,1.52.14,2.3.09,1.69-1.47,2.9-2.55,4.2-2.72,3.26-2.37,8.71-2.51,12.71l-.3,8.44A22.09,22.09,0,0,0,198.7,116.54Z" fill="#fff"></path><path d="M202.06,117.16h-.8l-2.57-.09a22.64,22.64,0,0,1-21.81-23.38l.29-8.44c0-.56,0-1.15,0-1.76.06-3.71.14-8.32,2.59-11.26.23-.28.49-.56.75-.84.9-1,1.74-1.89,1.69-3a4.63,4.63,0,0,0-.12-.73,2.91,2.91,0,0,1,0-1.8,3,3,0,0,1,1-1.12l.15-.12a6.7,6.7,0,0,0,2.35-5.19.52.52,0,0,1,.29-.48.53.53,0,0,1,.55.06,34.66,34.66,0,0,0,4,2.75,5.31,5.31,0,0,0,1.78.74,5.59,5.59,0,0,0,1.92-.18c.23-.05.46-.1.69-.13,3.29-.57,6.41.74,9.43,2a32.56,32.56,0,0,0,4.45,1.62,6.73,6.73,0,0,0,2.72,0,5.3,5.3,0,0,1,4.61.89,13.34,13.34,0,0,1,2.85,3.45,3.14,3.14,0,0,0,2.75,2.15,5.93,5.93,0,0,1,1.13.26c3.05,1.18,2.68,5,2.4,7.75-.05.59-.11,1.15-.12,1.62L225,83.6c-.11,3.54-.21,7.08-.34,10.62l0,1.12a22.61,22.61,0,0,1-22.57,21.82ZM186.58,60.42a7.64,7.64,0,0,1-2.67,5l-.16.13a2.19,2.19,0,0,0-.66.72,2,2,0,0,0,0,1.19,6.13,6.13,0,0,1,.14.89c.08,1.54-1,2.72-2,3.75-.24.27-.48.53-.71.8-2.21,2.66-2.29,6.89-2.35,10.62,0,.61,0,1.21,0,1.77l-.29,8.45A21.59,21.59,0,0,0,198.72,116l2.57.09A21.56,21.56,0,0,0,223.6,95.3l0-1.12c.13-3.54.23-7.08.33-10.61l.06-1.7c0-.49.07-1.07.13-1.69.25-2.58.57-5.79-1.75-6.68a4.27,4.27,0,0,0-.92-.21,5.24,5.24,0,0,1-1.2-.29A5.4,5.4,0,0,1,218,70.67a11.94,11.94,0,0,0-2.62-3.18,4.31,4.31,0,0,0-3.82-.69,7.61,7.61,0,0,1-3.12,0,33.41,33.41,0,0,1-4.6-1.67C201,63.93,198,62.68,195,63.19l-.65.13a6.42,6.42,0,0,1-2.28.19,6,6,0,0,1-2.15-.87A38.84,38.84,0,0,1,186.58,60.42Z" fill="#231f20"></path><path d="M201.27,97.26a37,37,0,0,1-4.54-.29.53.53,0,0,1-.44-.59.52.52,0,0,1,.58-.44,34,34,0,0,0,6.3.22.33.33,0,0,0,.29-.18c1-1.56-1.46-8.93-3.22-13.21a.52.52,0,1,1,.95-.4c.49,1.19,4.71,11.64,3.15,14.15a1.34,1.34,0,0,1-1.1.67C202.57,97.24,201.91,97.26,201.27,97.26Z" fill="#231f20"></path><path d="M182.52,94.92l-.7,12.42s4.88,9.5,20.07,9.26c11.27-.18,16.3-7,17.27-9.26s.74-12.58.74-12.58Z" fill="#fff"></path><path d="M201.33,117.12c-14.89,0-19.91-9.45-20-9.54a.45.45,0,0,1-.06-.27l.7-12.42a.52.52,0,0,1,.51-.49l37.38-.16h0a.53.53,0,0,1,.52.51c0,.42.22,10.46-.78,12.79-1.13,2.61-6.5,9.4-17.75,9.58Zm-19-9.9c.61,1,5.64,8.87,19,8.87h.55c10.69-.17,15.76-6.52,16.81-9,.72-1.67.76-8.7.71-11.86L183,95.43Z" fill="#231f20"></path><path d="M182.52,95.44a.51.51,0,0,1-.49-.37l-5.14-17a.51.51,0,1,1,1-.29l5.15,17a.52.52,0,0,1-.35.64A.4.4,0,0,1,182.52,95.44Z" fill="#231f20"></path><path d="M219.9,95.28l-.16,0a.52.52,0,0,1-.33-.65l4.75-14.78a.52.52,0,1,1,1,.32l-4.75,14.78A.51.51,0,0,1,219.9,95.28Z" fill="#231f20"></path><ellipse cx="210.96" cy="80.66" rx="3.75" ry="1.52" transform="matrix(0.03, -1, 1, 0.03, 123.03, 288.69)" fill="#231f20"></ellipse><ellipse cx="191.51" cy="79.98" rx="3.75" ry="1.52" transform="matrix(0.03, -1, 1, 0.03, 104.93, 268.6)" fill="#231f20"></ellipse><path d="M203.2,114h-.1a.5.5,0,0,1-.38-.6c1.6-7.29,0-16.48,0-16.58a.49.49,0,0,1,.41-.57.5.5,0,0,1,.58.4c.06.38,1.63,9.48,0,17A.5.5,0,0,1,203.2,114Z" fill="#d1d3d4"></path><path d="M146.07,266.44a.49.49,0,0,1-.49-.46l-5.92-92.08a.5.5,0,0,1,1-.06l5.91,92.07a.5.5,0,0,1-.47.53Z" fill="#231f20"></path><path d="M252.6,266.44h0a.49.49,0,0,1-.45-.54l8.34-86.35a.5.5,0,0,1,.55-.44.49.49,0,0,1,.44.54L253.1,266A.5.5,0,0,1,252.6,266.44Z" fill="#231f20"></path><path d="M200,266.44a.5.5,0,0,1-.5-.5v-112a.5.5,0,1,1,1,0v112A.49.49,0,0,1,200,266.44Z" fill="#231f20"></path><path d="M185.67,167a.52.52,0,0,1-.41-.21c-8.84-12.63-13.07-30.54-13.11-30.72a.49.49,0,0,1,.37-.59.5.5,0,0,1,.6.37c0,.17,4.09,17.29,12.51,29.72l8.68-15.25a.49.49,0,1,1,.86.49l-9.07,15.94a.49.49,0,0,1-.41.25Z" fill="#231f20"></path><path d="M218.32,166a.49.49,0,0,1-.4-.21l-11.61-16.32a.51.51,0,0,1,.11-.7.5.5,0,0,1,.7.12l11.08,15.59c1.56-3.88,7.89-20.36,7.42-30.7a.5.5,0,0,1,.48-.52.48.48,0,0,1,.52.48c.54,11.94-7.5,31.14-7.84,32a.52.52,0,0,1-.4.3Z" fill="#231f20"></path><path d="M230.08,235.19a.47.47,0,0,1-.25-.07l-19.11-10.69a.5.5,0,0,1-.25-.44V194.56a.49.49,0,0,1,.49-.5H243.9a.49.49,0,0,1,.49.5V224a.49.49,0,0,1-.19.39l-13.82,10.7A.48.48,0,0,1,230.08,235.19ZM211.46,223.7,230,234.09l13.37-10.34v-28.7H211.46Z" fill="#231f20"></path></g></svg>