<?xml version="1.0" encoding="UTF-8"?><svg version="1.1" id="Layer_1" xmlns="http://www.w3.org/2000/svg" xmlns:xlink="http://www.w3.org/1999/xlink" x="0px" y="0px" viewBox="0 0 1000 1000" enable-background="new 0 0 1000 1000" xml:space="preserve" width="1000px" height="1000px">
<ellipse fill="#EFEAE9" cx="465" cy="894" rx="286" ry="28"/>
<path fill="#FFFFFF" d="M576.852,894h-233.7c-21.022,0-38.959-15.594-42.34-36.832c-23.55-147.928-29.315-274.515-30.8-422.61
	C269.443,378.622,313.661,333,368.31,333h183.38c54.649,0,98.867,45.622,98.3,101.558c-1.488,148.1-7.253,274.682-30.8,422.61
	C615.811,878.406,597.874,894,576.852,894z"/>
<path fill="#EFEAE9" d="M551.69,333h-55c54.649,0,98.867,45.622,98.305,101.558C593.507,582.653,584.55,709.072,561,857
	c-3.381,21.238-18.126,37-39.148,37h55c21.022,0,38.959-15.594,42.34-36.832c23.55-147.928,29.315-274.515,30.8-422.61
	C650.557,378.622,606.339,333,551.69,333z"/>
<path fill="#070808" d="M464.123,847H442.67c-1.657,0-3-1.343-3-3c0-0.384,0.074-0.765,0.217-1.121
	c3.89-9.805,7.062-19.881,9.489-30.147l0,0c8.918-37.024,15.781-102.2-2.172-202.44c-10.418-58.168-20.8-145.141-11.119-229.156
	c5.891-51.092,16.457-77.031,16.9-78.11c0.634-1.531,2.389-2.258,3.919-1.624c0,0,0,0,0.001,0l18.48,7.631
	c1.531,0.63,2.262,2.382,1.633,3.913c-0.095,0.236-9.863,24.71-15.242,72.344c-5.02,44.464-7.184,118.8,11.016,220.418
	c22.009,122.881,8.967,197.959-5.849,239.3C466.518,846.201,465.389,846.998,464.123,847z M447.055,841H462
	c14.271-41.062,26.315-114.614,4.89-234.233c-18.328-102.333-16.137-177.289-11.072-222.15c4.465-39.54,11.894-63.367,14.615-71.136
	l-12.966-5.354c-2.843,7.894-10.647,32.283-15.421,73.7c-9.6,83.291,0.717,169.64,11.064,227.41
	c18.137,101.266,11.152,167.322,2.1,204.9l0,0C453.043,823.249,450.319,832.221,447.055,841z"/>
<path fill="#171819" d="M576.853,897h-233.7c-22.619,0-41.672-16.554-45.3-39.36c-23.554-147.955-29.364-276.126-30.84-423.052
	c-0.424-27.929,10.421-54.852,30.087-74.688c18.749-19.139,44.418-29.917,71.21-29.9h183.379
	c26.792-0.017,52.462,10.761,71.211,29.9c19.672,19.833,30.522,46.757,30.1,74.688c-1.476,146.928-7.286,275.1-30.84,423.052
	C618.524,880.446,599.472,897,576.853,897z M368.31,336c-25.191-0.013-49.325,10.125-66.951,28.123
	c-18.535,18.698-28.756,44.075-28.354,70.4c1.474,146.661,7.269,274.578,30.766,422.169c3.164,19.877,19.725,34.3,39.377,34.3h233.7
	c19.652,0,36.212-14.427,39.376-34.3c23.5-147.589,29.292-275.508,30.766-422.169c0.401-26.325-9.819-51.702-28.354-70.4
	c-17.625-17.996-41.757-28.134-66.947-28.123H368.31z"/>
<path fill="#FFDEC5" d="M403,241h122c14.912,0,27,12.088,27,27v65l0,0H376l0,0v-65C376,253.088,388.088,241,403,241z"/>
<path opacity="0.8" fill="#41E5CD" enable-background="new    " d="M303.5,458c1.669,125.993,7.142,249.517,30.1,393.7
	c0.696,4.749,4.757,8.276,9.556,8.3h233.7c4.799-0.024,8.86-3.551,9.556-8.3c10.776-67.687,18.4-139.3,23.308-218.915
	c3.582-58.11,5.761-99.145,6.784-174.784c0,0-78.5,20-179.5-8C362.874,429.45,303.5,458,303.5,458z"/>
<path opacity="0.8" fill="#3AD8C1" enable-background="new    " d="M412,450c39.658,11,80.747,15.963,121.884,14.723
	c-32.766-1.027-65.292-5.97-96.884-14.723c-21.939-6.061-44.73-8.447-67.449-7.062C383.91,443.792,398.138,446.159,412,450z"/>
<path opacity="0.8" fill="#32CEB3" enable-background="new    " d="M591.439,462.267c-1.046,72.92-3.209,113.515-6.723,170.517
	c-4.908,79.616-12.532,151.228-23.308,218.916c-0.696,4.749-4.757,8.276-9.556,8.3h25c4.799-0.024,8.86-3.551,9.556-8.3
	c10.776-67.687,18.4-139.3,23.308-218.915c3.582-58.11,5.761-99.145,6.784-174.784C608.235,459.902,599.868,461.327,591.439,462.267
	z"/>
<path fill="#171819" d="M576.853,863h-233.7c-6.276-0.018-11.597-4.62-12.519-10.828c-23.881-150.008-28.6-278.078-30.132-394.132
	c-0.016-1.168,0.648-2.238,1.7-2.744c0.62-0.3,15.477-7.36,39.695-11.95c31.84-6.053,64.641-4.766,95.909,3.763
	c98.986,27.442,177.18,8.182,177.959,7.984c1.606-0.409,3.239,0.561,3.648,2.167c0.065,0.255,0.096,0.518,0.092,0.781
	c-1.044,77.2-3.366,119.386-6.79,174.928c-4.915,79.726-12.549,151.428-23.339,219.2C588.455,858.379,583.131,862.983,576.853,863z
	 M306.523,459.94c1.561,115.306,6.346,242.507,30.032,391.289c0.469,3.289,3.271,5.741,6.593,5.771h233.7
	c3.322-0.03,6.123-2.483,6.592-5.772c10.76-67.582,18.373-139.095,23.277-218.628c3.362-54.541,5.66-96.174,6.725-170.853
	c-16.99,3.494-89.069,15.589-177.248-8.856C371,434.816,316.749,455.589,306.523,459.94z"/>
<rect x="441" y="159" fill="#FFFFFF" width="49" height="82"/>
<path fill="#171819" d="M490,244h-49c-1.657,0-3-1.343-3-3v-82c0-1.657,1.343-3,3-3h49c1.657,0,3,1.343,3,3v82
	C493,242.657,491.657,244,490,244z M444,238h43v-76h-43V238z"/>
<rect x="405" y="185" fill="#FFDEC5" width="121" height="30"/>
<rect x="500" y="185" fill="#EFB58E" width="26" height="30"/>
<path fill="#070808" d="M526,218H405c-1.657,0-3-1.343-3-3v-30c0-1.657,1.343-3,3-3h121c1.657,0,3,1.343,3,3v30
	C529,216.657,527.657,218,526,218z M408,212h115v-24H408V212z"/>
<circle fill="#BBF2E6" cx="535.5" cy="546.5" r="16.5"/>
<circle fill="#BBF2E6" cx="362.5" cy="675.5" r="13.5"/>
<path fill="#F2A0BE" d="M675.341,194.928c-5.654-21.174-24.825-35.911-46.741-35.928H382v-50h246.6
	c44.571,0.038,83.558,30.009,95.055,73.072L675.341,194.928z"/>
<path fill="#DD83A7" d="M697.24,189.1l26.419-7.029C712.162,139.007,673.172,109.036,628.6,109h-37.113
	C640.684,109.047,683.867,141.755,697.24,189.1z"/>
<path fill="#171819" d="M675.339,197.929c-1.36,0-2.551-0.915-2.9-2.23c-5.302-19.86-23.283-33.682-43.839-33.699H382
	c-1.657,0-3-1.343-3-3v-50c0-1.657,1.343-3,3-3h246.6c45.93,0.04,86.107,30.925,97.955,75.3c0.426,1.601-0.527,3.244-2.128,3.67
	l-48.319,12.856C675.857,197.894,675.599,197.928,675.339,197.929z M385,156h243.6c22.163,0.021,41.82,14.238,48.78,35.28
	l42.559-11.323c-12.134-40.312-49.24-67.919-91.339-67.957H385V156z"/>
<path fill="#99EDD9" d="M738.856,249.542L710.5,221.186l-28.356,28.356c-15.661,15.659-15.662,41.049-0.003,56.71
	c0.001,0.001,0.002,0.002,0.003,0.003l0,0c15.659,15.661,41.049,15.661,56.71,0.002c0.001-0.001,0.001-0.001,0.002-0.002l0,0
	C754.515,290.595,754.512,265.204,738.856,249.542z"/>
<path fill="#67DBBD" d="M738.856,249.542L710.5,221.186l-3,3l11.356,11.356c15.661,15.659,15.662,41.049,0.003,56.71
	c-0.001,0.001-0.002,0.002-0.003,0.003l0,0c-10.529,10.533-26.029,14.36-40.251,9.939c1.088,1.431,2.27,2.787,3.539,4.061l0,0
	c15.659,15.661,41.049,15.661,56.71,0.002c0.001-0.001,0.001-0.001,0.002-0.002l0,0c15.661-15.659,15.662-41.049,0.003-56.71
	C738.858,249.544,738.857,249.543,738.856,249.542z"/>
<path fill="#171819" d="M710.5,320.979c-23.793,0.016-43.094-19.259-43.11-43.052c-0.008-11.443,4.537-22.419,12.632-30.506
	l28.357-28.356c1.172-1.171,3.07-1.171,4.242,0l28.357,28.356l0,0c16.832,16.816,16.845,44.094,0.028,60.926
	C732.919,316.442,721.943,320.987,710.5,320.979z M710.5,225.429l-26.235,26.235c-14.488,14.489-14.487,37.98,0.003,52.467
	c14.489,14.488,37.98,14.487,52.467-0.003c14.487-14.488,14.487-37.977,0-52.465l0,0L710.5,225.429z"/>
<path fill="#FCFCFC" d="M687.5,285.542c-1.436-0.002-2.67-1.022-2.942-2.432c-0.502-2.595-0.666-5.245-0.489-7.882
	c0.11-1.653,1.54-2.904,3.193-2.794c1.653,0.11,2.904,1.54,2.794,3.194c-0.143,2.122-0.011,4.253,0.392,6.341
	c0.314,1.626-0.75,3.199-2.376,3.514C687.884,285.521,687.692,285.541,687.5,285.542z"/>
<path fill="#FCFCFC" d="M690.639,266.6c-1.657,0.001-3.001-1.341-3.002-2.998c0-0.527,0.138-1.045,0.402-1.502
	c1.342-2.334,2.988-4.481,4.894-6.383l7.258-7.259c1.162-1.181,3.061-1.198,4.242-0.036c1.181,1.162,1.198,3.061,0.036,4.242
	c-0.012,0.012-0.024,0.024-0.035,0.035l-7.259,7.259c-1.531,1.529-2.854,3.254-3.933,5.13
	C692.708,266.023,691.715,266.6,690.639,266.6z"/>
<path fill="#171819" d="M526,218H405c-1.657,0-3-1.343-3-3v-30c0-1.657,1.343-3,3-3h121c1.657,0,3,1.343,3,3v30
	C529,216.657,527.657,218,526,218z M408,212h115v-24H408V212z"/>
<path fill="#EFB58E" d="M525,241h-29c14.912,0,27,12.088,27,27v65h29v-65C552,253.088,539.912,241,525,241z"/>
<path fill="#171819" d="M552,336H376c-1.657,0-3-1.343-3-3v-65c0.019-16.561,13.439-29.981,30-30h122
	c16.561,0.019,29.981,13.439,30,30v65C555,334.657,553.657,336,552,336z M379,330h170v-62c-0.015-13.249-10.751-23.985-24-24H403
	c-13.249,0.015-23.985,10.751-24,24V330z"/>
<polygon fill="#FF4F7C" points="518.5,605.5 475.5,605.5 475.5,562.5 444.5,562.5 444.5,605.5 401.5,605.5 401.5,636.5 444.5,636.5 
	444.5,678.5 475.5,678.5 475.5,636.5 518.5,636.5 "/>
<path fill="#070808" d="M475.5,681.5h-31c-1.657,0-3-1.343-3-3v-39h-40c-1.657,0-3-1.343-3-3v-31c0-1.657,1.343-3,3-3h40v-40
	c0-1.657,1.343-3,3-3h31c1.657,0,3,1.343,3,3v40h40c1.657,0,3,1.343,3,3v31c0,1.657-1.343,3-3,3h-40v39
	C478.5,680.157,477.157,681.5,475.5,681.5z M447.5,675.5h25v-39c0-1.657,1.343-3,3-3h40v-25h-40c-1.657,0-3-1.343-3-3v-40h-25v40
	c0,1.657-1.343,3-3,3h-40v25h40c1.657,0,3,1.343,3,3V675.5z"/>
</svg>